<?xml version="1.0" standalone="no"?>
<!DOCTYPE svg PUBLIC "-//W3C//DTD SVG 20010904//EN"
 "http://www.w3.org/TR/2001/REC-SVG-20010904/DTD/svg10.dtd">
<svg version="1.0" xmlns="http://www.w3.org/2000/svg"
 width="512.000000pt" height="512.000000pt" viewBox="0 0 512.000000 512.000000"
 preserveAspectRatio="xMidYMid meet">

<g transform="translate(0.000000,512.000000) scale(0.100000,-0.100000)"
fill="#000000" stroke="none">
<path d="M1130 5109 c-295 -34 -569 -173 -778 -394 -167 -176 -266 -365 -325
-620 -21 -89 -21 -111 -25 -1455 -3 -1382 -1 -1497 33 -1644 55 -237 171 -443
344 -616 186 -185 388 -294 651 -352 90 -20 129 -21 813 -25 l717 -4 0 960 0
961 -264 0 c-257 0 -264 1 -297 23 -18 12 -44 38 -56 56 -23 33 -23 39 -23
321 0 282 0 288 23 321 12 18 38 44 56 56 33 22 40 23 297 23 l263 0 3 408 c4
402 5 408 30 492 33 110 66 183 121 267 128 195 326 340 553 404 74 22 101 23
432 27 345 3 354 3 387 -18 19 -12 43 -36 54 -54 20 -32 21 -48 21 -323 0
-284 0 -291 -23 -323 -51 -76 -45 -74 -370 -80 -271 -5 -295 -6 -327 -25 -19
-12 -43 -36 -55 -55 -19 -33 -20 -54 -23 -377 l-3 -343 321 0 c348 0 367 -3
408 -55 47 -60 46 -79 -13 -376 -56 -281 -64 -302 -119 -343 -26 -20 -43 -21
-312 -24 l-284 -3 0 -960 0 -961 333 5 c360 5 407 11 577 72 257 93 483 270
637 500 84 126 153 292 189 455 18 81 19 156 19 1515 0 1334 -1 1436 -18 1520
-54 274 -165 482 -357 675 -215 216 -459 333 -770 370 -105 12 -2731 11 -2840
-1z"/>
</g>
</svg>
