<?xml version="1.0" standalone="no"?>
<!DOCTYPE svg PUBLIC "-//W3C//DTD SVG 20010904//EN"
 "http://www.w3.org/TR/2001/REC-SVG-20010904/DTD/svg10.dtd">
<svg version="1.0" xmlns="http://www.w3.org/2000/svg"
 width="512.000000pt" height="512.000000pt" viewBox="0 0 512.000000 512.000000"
 preserveAspectRatio="xMidYMid meet">

<g transform="translate(0.000000,512.000000) scale(0.100000,-0.100000)"
fill="#000000" stroke="none">
<path d="M2145 5114 c-749 -28 -1264 -73 -1420 -125 -285 -95 -499 -309 -594
-594 -75 -227 -141 -1278 -127 -2052 12 -742 67 -1438 127 -1618 105 -316 367
-552 688 -620 36 -7 163 -23 281 -34 872 -82 1739 -91 2620 -26 284 21 492 43
577 60 350 70 644 362 718 713 7 37 23 166 34 287 92 971 92 1939 0 2910 -22
244 -36 320 -74 421 -104 275 -346 494 -630 569 -109 28 -564 71 -1015 95
-197 11 -1018 20 -1185 14z m860 -1394 c276 -13 576 -39 660 -56 104 -21 220
-80 296 -152 110 -103 128 -151 170 -467 20 -147 23 -213 23 -485 0 -272 -3
-338 -23 -485 -41 -309 -59 -359 -160 -460 -68 -68 -204 -139 -306 -159 -161
-33 -720 -66 -1105 -66 -385 0 -944 33 -1105 66 -152 30 -326 148 -389 263
-31 58 -56 177 -83 391 -25 205 -25 695 0 900 35 285 63 384 131 461 77 88
219 168 343 194 241 49 1067 78 1548 55z"/>
<path d="M2180 2560 l0 -612 33 21 c17 11 240 148 494 303 254 156 462 285
462 288 0 3 -208 132 -462 288 -254 155 -477 292 -494 303 l-33 21 0 -612z"/>
</g>
</svg>
