<?xml version="1.0" encoding="UTF-8"?>
<svg version="1.1" xmlns="http://www.w3.org/2000/svg" width="832" height="260">
<path d="M0 0 C4.17617775 1.39205925 5.09645771 4.25149563 7.0625 7.9375 C7.4538916 8.65260742 7.8452832 9.36771484 8.24853516 10.10449219 C9.08241469 11.62814841 9.91271904 13.15376582 10.73974609 14.68115234 C12.35281064 17.64916611 13.99860411 20.59827847 15.64550781 23.54760742 C18.75610963 29.11963661 21.84206833 34.70486149 24.90234375 40.3046875 C25.38783691 41.19188477 25.87333008 42.07908203 26.37353516 42.99316406 C27.30373081 44.69447203 28.23193032 46.39687359 29.15771484 48.10058594 C29.58648926 48.8846582 30.01526367 49.66873047 30.45703125 50.4765625 C31.0135437 51.4987085 31.0135437 51.4987085 31.58129883 52.54150391 C32.89699002 54.91572464 32.89699002 54.91572464 34.2123394 56.68707085 C37.75698714 61.78359393 38.71358929 65.47498476 38.56762695 71.61914062 C38.56872215 72.84984283 38.56872215 72.84984283 38.56983948 74.10540771 C38.56638444 76.78971868 38.52762494 79.47224611 38.48828125 82.15625 C38.47894565 84.02810722 38.47183307 85.89997674 38.46684265 87.77185059 C38.44783163 92.67775723 38.39878219 97.58291345 38.34332275 102.48852539 C38.29200253 107.50266369 38.26930141 112.51692427 38.24414062 117.53125 C38.19065731 127.3544948 38.10541656 137.17718478 38 147 C40.08464297 145.71721605 42.16927713 144.43441779 44.25390625 143.15161133 C44.84095337 142.79037422 45.42800049 142.42913712 46.03283691 142.05695343 C49.00151652 140.23011876 51.96996338 138.40290954 54.9375 136.57421875 C56.4534375 135.64029297 56.4534375 135.64029297 58 134.6875 C59.03125 134.05199219 60.0625 133.41648438 61.125 132.76171875 C63.74088971 131.15877546 66.36628918 129.57344856 69 128 C71.23152884 130.8523267 73.45978354 133.70719509 75.6875 136.5625 C76.62625977 137.76229492 76.62625977 137.76229492 77.58398438 138.98632812 C78.50727539 140.1706543 78.50727539 140.1706543 79.44921875 141.37890625 C80.00955811 142.0963501 80.56989746 142.81379395 81.1472168 143.55297852 C81.75863525 144.36049561 82.37005371 145.1680127 83 146 C83.88816406 146.97453125 84.77632813 147.9490625 85.69140625 148.953125 C89.38005065 154.18523883 88.61703679 160.22155315 88.48828125 166.37109375 C88.48120651 167.64855972 88.47413177 168.9260257 88.46684265 170.24220276 C88.44367094 173.61795377 88.39885521 176.99197579 88.34332275 180.36724854 C88.29192345 183.81955117 88.2692849 187.27203336 88.24414062 190.72460938 C88.18911961 197.48354604 88.10552632 204.24167332 88 211 C89.55895996 210.86368164 89.55895996 210.86368164 91.14941406 210.72460938 C95.01075517 210.38742471 98.87228989 210.05250396 102.73388672 209.71826172 C104.40418771 209.57337048 106.0744358 209.42786792 107.74462891 209.28173828 C110.14732383 209.07162754 112.55020135 208.86372644 114.953125 208.65625 C115.69806213 208.59062866 116.44299927 208.52500732 117.21051025 208.45739746 C120.49412474 208.17582339 123.70070385 208 127 208 C127 218.89 127 229.78 127 241 C24.04 241 -78.92 241 -185 241 C-185 239.02 -185 237.04 -185 235 C-184.00395248 234.90643723 -183.00790497 234.81287445 -181.98167419 234.71647644 C-172.44050891 233.82017821 -162.89938771 232.92341189 -153.35830593 232.02622509 C-148.45707187 231.56535623 -143.55582415 231.10463379 -138.65454102 230.64428711 C-115.43304566 228.46312255 -92.21340105 226.26588847 -69 224 C-68.95654953 223.43878952 -68.91309906 222.87757904 -68.86833191 222.29936218 C-68.3102223 215.09523891 -67.74946668 207.89132337 -67.1875 200.6875 C-67.09729584 199.53041534 -67.00709167 198.37333069 -66.91415405 197.18118286 C-65.8890091 184.0517439 -64.8472965 170.92471557 -63.69335938 157.8059082 C-63.44004063 154.92496505 -63.19650664 152.04349591 -62.96289062 149.16088867 C-62.50936975 143.59814839 -62.04603498 138.06029594 -61.2421875 132.53515625 C-59.68538282 120.79222718 -63.41428146 113.37181943 -69.52880859 103.42724609 C-71.54866602 100.09478301 -73.4114522 96.6834652 -75.28198242 93.265625 C-77.16308429 89.82964762 -79.08207803 86.41553338 -81 83 C-88.52816659 88.87966296 -96.01762747 94.79395274 -103.39453125 100.86328125 C-107.56385052 104.28249811 -111.76457027 107.66299475 -116 111 C-116.71285156 111.56976563 -117.42570312 112.13953125 -118.16015625 112.7265625 C-120 114 -120 114 -122 114 C-121.53590717 109.42308449 -120.08461564 107.69667578 -116.625 104.75 C-115.72394531 103.97527344 -114.82289062 103.20054688 -113.89453125 102.40234375 C-110.12972631 99.27770807 -106.36146218 96.15939581 -102.5546875 93.0859375 C-100.30364307 91.24792874 -98.11463434 89.36168927 -95.9375 87.4375 C-93 85 -93 85 -91 85 C-91 84.34 -91 83.68 -91 83 C-89.13671875 81.2734375 -89.13671875 81.2734375 -86.6875 79.375 C-85.88699219 78.74335937 -85.08648437 78.11171875 -84.26171875 77.4609375 C-82 76 -82 76 -79 76 C-77.38671875 78.203125 -77.38671875 78.203125 -75.6875 81.25 C-75.07390625 82.34570312 -74.4603125 83.44140625 -73.828125 84.5703125 C-71.62363583 88.70608492 -69.54078418 92.8925535 -67.48046875 97.1015625 C-65.59350046 100.79583815 -63.48188326 104.31954313 -61.296875 107.84375 C-60.08721638 109.85498963 -59.01827137 111.8866066 -58 114 C-53.35569025 112.61658858 -49.30119214 110.66385209 -45.125 108.25 C-44.4537207 107.86730957 -43.78244141 107.48461914 -43.09082031 107.09033203 C-34.64809858 102.25974136 -26.25427564 97.34274797 -17.859375 92.4296875 C-16.43141602 91.5958252 -16.43141602 91.5958252 -14.97460938 90.74511719 C-12.86716915 89.50874303 -10.76479055 88.26372255 -8.66601562 87.01269531 C-7.58513672 86.37170898 -6.50425781 85.73072266 -5.390625 85.0703125 C-4.40610352 84.48266113 -3.42158203 83.89500977 -2.40722656 83.28955078 C0 82 0 82 2 82 C2 85.3 2 88.6 2 92 C-7.50497683 97.14802202 -17.0739657 102.04317149 -26.87426758 106.60522461 C-33.247317 109.59232547 -39.47106072 112.81598676 -45.65820312 116.16992188 C-48.41773784 117.66163517 -51.01684866 119.00561622 -54 120 C-54 123.3 -54 126.6 -54 130 C-44.08510117 125.44130195 -34.33553373 120.76943219 -24.87573242 115.32226562 C-20.09448696 112.58083353 -15.24392743 110.02339953 -10.3125 107.5625 C-9.65290283 107.23241943 -8.99330566 106.90233887 -8.3137207 106.56225586 C-4.92733475 104.88811212 -1.53099021 103.34353165 2 102 C2.10824843 103.6026782 2.18570645 105.20745748 2.25 106.8125 C2.29640625 107.70582031 2.3428125 108.59914063 2.390625 109.51953125 C2 112 2 112 0.453125 113.62890625 C-2.75579754 115.42242824 -6.08411515 116.7881442 -9.5 118.125 C-16.13547838 120.78628038 -22.67853206 123.60540531 -29.1875 126.5625 C-35.1511562 129.26558825 -41.11577316 131.96191829 -47.125 134.5625 C-48.22070312 135.03816406 -49.31640625 135.51382813 -50.4453125 136.00390625 C-53 137 -53 137 -55 137 C-54.67 140.3 -54.34 143.6 -54 147 C-52.5975 146.35933594 -51.195 145.71867188 -49.75 145.05859375 C-39.18986595 140.24196917 -28.61410664 135.47357845 -17.96484375 130.85742188 C-15.81599458 129.9197034 -13.67333589 128.96868731 -11.53125 128.015625 C-10.79438965 127.68908936 -10.0575293 127.36255371 -9.29833984 127.02612305 C-7.88074891 126.39758661 -6.46434537 125.76636323 -5.04931641 125.13208008 C-0.22463246 123 -0.22463246 123 2 123 C2 126.3 2 129.6 2 133 C-12.99670872 139.45691625 -28.36351479 145.04731736 -43.75 150.5 C-44.43408936 150.74290771 -45.11817871 150.98581543 -45.82299805 151.23608398 C-48.87161217 152.30498752 -51.86051136 153.21512784 -55 154 C-54.67 157.3 -54.34 160.6 -54 164 C-51.85757813 163.14728516 -51.85757813 163.14728516 -49.671875 162.27734375 C-39.09820355 158.09212181 -28.51778085 154.00998019 -17.73730469 150.38452148 C-13.01606141 148.77976144 -8.52798392 146.93904899 -4.03857422 144.76293945 C-2 144 -2 144 2 144 C2 147.63 2 151.26 2 155 C0.45957031 155.40089844 -1.08085937 155.80179688 -2.66796875 156.21484375 C-16.50719209 159.8584042 -30.19367061 163.81787292 -43.82885742 168.15405273 C-44.99908447 168.52473877 -46.16931152 168.8954248 -47.375 169.27734375 C-48.41398438 169.60984131 -49.45296875 169.94233887 -50.5234375 170.28491211 C-53 171 -53 171 -55 171 C-55 174.3 -55 177.6 -55 181 C-54.04448242 180.69819824 -53.08896484 180.39639648 -52.10449219 180.08544922 C-20.13512862 169.9923753 -20.13512862 169.9923753 -7.9375 166.3125 C-7.13731445 166.06935059 -6.33712891 165.82620117 -5.51269531 165.57568359 C-0.24463221 164 -0.24463221 164 2 164 C2 167.63 2 171.26 2 175 C-24.95298252 181.9280965 -24.95298252 181.9280965 -37.1875 184.375 C-37.95610352 184.53000977 -38.72470703 184.68501953 -39.51660156 184.84472656 C-44.6594585 185.84063049 -49.78817417 186.47417781 -55 187 C-55 190.63 -55 194.26 -55 198 C-53.81083984 197.67128906 -53.81083984 197.67128906 -52.59765625 197.3359375 C-34.51886219 192.42170177 -16.24057752 188.2653345 2 184 C2 187.96 2 191.92 2 196 C-8.00664361 198.22369858 -18.02660137 199.77196018 -28.1875 201.125 C-29.4573877 201.29547852 -30.72727539 201.46595703 -32.03564453 201.64160156 C-39.68208906 202.6412537 -47.31028628 203.41986763 -55 204 C-55 207.63 -55 211.26 -55 215 C-54.22180908 214.8131665 -53.44361816 214.62633301 -52.6418457 214.43383789 C-44.52794336 212.51910436 -36.39652001 210.88665262 -28.1875 209.4375 C-26.97223633 209.22134033 -25.75697266 209.00518066 -24.50488281 208.7824707 C-15.69491239 207.23961084 -6.896534 205.92557108 2 205 C2 208.96 2 212.92 2 217 C-10.67984899 218.15048823 -23.3635026 219.20746164 -36.0625 220.125 C-37.25649414 220.21249512 -38.45048828 220.29999023 -39.68066406 220.39013672 C-40.80827148 220.47021973 -41.93587891 220.55030273 -43.09765625 220.6328125 C-44.09289307 220.70387207 -45.08812988 220.77493164 -46.11352539 220.84814453 C-49.08118235 221.00427095 -52.02880861 221.02591556 -55 221 C-55 221.99 -55 222.98 -55 224 C-54.175 223.85304687 -53.35 223.70609375 -52.5 223.5546875 C-39.10269364 221.43145368 -25.4477568 220.67049719 -11.93408203 219.58148193 C-10.24127388 219.44489612 -8.54856305 219.30709809 -6.85595703 219.16802979 C-4.43293628 218.96975332 -2.00952936 218.77709245 0.4140625 218.5859375 C1.13026764 218.52666077 1.84647278 218.46738403 2.5843811 218.40631104 C8.0618553 217.98394891 13.5078464 217.94000221 19 218 C19.10546143 216.70827881 19.21092285 215.41655762 19.31958008 214.08569336 C21.72765938 184.64660146 24.14005492 155.22092026 27.48193359 125.87036133 C29.01332813 112.41401088 30.46882097 98.95421327 31.66113281 85.46298218 C31.80253319 83.87587992 31.94797304 82.28913183 32.09765625 80.70278931 C32.30383203 78.50195067 32.49401766 76.3003074 32.6796875 74.09765625 C32.79038574 72.84476807 32.90108398 71.59187988 33.01513672 70.30102539 C32.99314966 65.50607374 31.19379625 62.16732999 28.8984375 58.06640625 C28.29310181 56.98045166 28.29310181 56.98045166 27.67553711 55.87255859 C27.24635986 55.11023926 26.81718262 54.34791992 26.375 53.5625 C25.92842041 52.76408691 25.48184082 51.96567383 25.02172852 51.14306641 C21.72134246 45.25309236 18.37883691 39.38779917 15.01953125 33.53125 C12.70364799 29.48914921 10.41199225 25.43350224 8.125 21.375 C7.74335693 20.69937012 7.36171387 20.02374023 6.96850586 19.32763672 C5.23794143 16.25254787 3.53303034 13.17902081 2 10 C-0.7349848 11.29155185 -3.10899635 12.71287769 -5.51171875 14.546875 C-6.51138672 15.30871094 -6.51138672 15.30871094 -7.53125 16.0859375 C-8.2428125 16.63507812 -8.954375 17.18421875 -9.6875 17.75 C-10.43644531 18.32492188 -11.18539062 18.89984375 -11.95703125 19.4921875 C-17.94336676 24.11708216 -23.7824766 28.90487915 -29.59545898 33.74462891 C-36.66028022 39.60238292 -43.94456263 45.15774586 -51.27539062 50.67675781 C-52.83170437 51.8708717 -54.34835065 53.1162575 -55.859375 54.3671875 C-58 56 -58 56 -60 56 C-60.27734375 53.7734375 -60.27734375 53.7734375 -60 51 C-58.12890625 48.7890625 -58.12890625 48.7890625 -55.5625 46.625 C-54.19158203 45.45710938 -54.19158203 45.45710938 -52.79296875 44.265625 C-49.62416225 41.69512462 -46.42676347 39.17269627 -43.17578125 36.70703125 C-40.19917451 34.37170424 -37.41339779 31.84463837 -34.62890625 29.28515625 C-33 28 -33 28 -31 28 C-31 27.34 -31 26.68 -31 26 C-29.55235738 24.70958086 -28.03910851 23.49232866 -26.5 22.3125 C-23.27921688 19.80092158 -20.11382754 17.27761058 -17.0625 14.5625 C-12.91913118 10.88515425 -8.62634507 7.40237672 -4.3203125 3.91796875 C-1.99143456 2.05443855 -1.99143456 2.05443855 0 0 Z M62.86328125 135.921875 C61.81076172 136.53546875 60.75824219 137.1490625 59.67382812 137.78125 C58.56458984 138.4309375 57.45535156 139.080625 56.3125 139.75 C55.22259766 140.38421875 54.13269531 141.0184375 53.00976562 141.671875 C45.32162073 146.05358564 45.32162073 146.05358564 38 151 C38 151.66 38 152.32 38 153 C42.96651508 151.57773611 46.86839364 149.41515034 51.1875 146.6875 C57.26033891 142.93767083 63.39336434 139.73330664 70 137 C70 138.32 70 139.64 70 141 C69.23945313 141.20625 68.47890625 141.4125 67.6953125 141.625 C62.46629956 143.57067923 57.74158854 146.2885236 52.875 149 C50.91434995 150.08385348 48.95342328 151.16720677 46.9921875 152.25 C46.12964355 152.72953125 45.26709961 153.2090625 44.37841797 153.703125 C42.27310663 154.85108372 40.1525664 155.94395354 38 157 C38 157.99 38 158.98 38 160 C43.57352816 158.39851545 48.42314012 155.79831951 53.5 153.0625 C55.15596815 152.17785761 56.81221195 151.293731 58.46875 150.41015625 C59.24476563 149.99523926 60.02078125 149.58032227 60.8203125 149.15283203 C63.52534394 147.72214672 66.25423272 146.35059657 69 145 C69.33 146.32 69.66 147.64 70 149 C69.20464844 149.23847656 68.40929687 149.47695312 67.58984375 149.72265625 C63.08578971 151.32529572 58.86203138 153.35664783 54.5625 155.4375 C49.0847041 158.07527603 43.60905544 160.65219887 38 163 C38 163.99 38 164.98 38 166 C46.07056676 164.13756152 53.06416677 160.62217741 60.36328125 156.83984375 C63.18520107 155.38320397 66.02121947 154.11200124 69 153 C69.33 154.32 69.66 155.64 70 157 C69.47720459 157.16290527 68.95440918 157.32581055 68.41577148 157.49365234 C62.13083592 159.51324555 56.11139802 161.98949981 50.0625 164.625 C49.11826172 165.03234375 48.17402344 165.4396875 47.20117188 165.859375 C42.56134374 167.84478753 42.56134374 167.84478753 38 170 C38.33 170.99 38.66 171.98 39 173 C40.20329956 172.50802124 40.20329956 172.50802124 41.4309082 172.00610352 C44.41057543 170.78837528 47.39059276 169.57150901 50.37084961 168.35522461 C51.66005301 167.82887689 52.94911675 167.30218695 54.23803711 166.77514648 C56.09191626 166.01716353 57.94634186 165.26051752 59.80078125 164.50390625 C60.91622314 164.04830322 62.03166504 163.5927002 63.1809082 163.12329102 C65.09903486 162.3589972 67.04116887 161.65294371 69 161 C69.33 162.32 69.66 163.64 70 165 C69.41299316 165.16798096 68.82598633 165.33596191 68.22119141 165.5090332 C61.50198074 167.47324168 54.94073534 169.76370051 48.375 172.1875 C47.37082031 172.55552734 46.36664063 172.92355469 45.33203125 173.30273438 C42.88705325 174.19922631 40.44307919 175.09834928 38 176 C38.33 177.32 38.66 178.64 39 180 C39.66008057 179.73783691 40.32016113 179.47567383 41.00024414 179.20556641 C44.01964579 178.0086054 47.04104429 176.81676596 50.0625 175.625 C51.10083984 175.2125 52.13917969 174.8 53.20898438 174.375 C58.42669527 172.32104396 63.56860845 170.40214647 69 169 C69.33 170.32 69.66 171.64 70 173 C68.97261719 173.24234375 67.94523437 173.4846875 66.88671875 173.734375 C56.92469236 176.127575 47.51303001 179.18127037 38 183 C38 183.66 38 184.32 38 185 C44.57772186 184.33756276 50.6457395 182.4097775 56.9375 180.4375 C58.00291016 180.10814453 59.06832031 179.77878906 60.16601562 179.43945312 C62.77884238 178.631 65.39006622 177.81773465 68 177 C68.33 178.32 68.66 179.64 69 181 C68.01902344 181.24234375 67.03804687 181.4846875 66.02734375 181.734375 C56.65732243 184.05817769 47.31993279 186.48254689 38 189 C38 189.99 38 190.98 38 192 C44.41822466 191.40973254 50.18160113 189.88762355 56.3125 187.9375 C58.07824836 187.38036496 59.8451326 186.82681357 61.61328125 186.27734375 C62.77017456 185.90984009 62.77017456 185.90984009 63.95043945 185.53491211 C66 185 66 185 69 185 C69.33 186.32 69.66 187.64 70 189 C69.19820312 189.08636719 68.39640625 189.17273438 67.5703125 189.26171875 C57.38070451 190.52097869 47.82317293 193.08200532 38 196 C38 196.66 38 197.32 38 198 C45.39489968 197.46512323 52.41978269 196.15463123 59.625 194.4375 C60.62917969 194.20353516 61.63335937 193.96957031 62.66796875 193.72851562 C65.11334854 193.15792701 67.55724069 192.58168567 70 192 C69.67 193.65 69.34 195.3 69 197 C67.85785034 197.17390259 67.85785034 197.17390259 66.69262695 197.35131836 C63.23240182 197.8788544 59.77244944 198.40815887 56.3125 198.9375 C55.11431641 199.11990234 53.91613281 199.30230469 52.68164062 199.49023438 C51.52470703 199.66748047 50.36777344 199.84472656 49.17578125 200.02734375 C48.11270752 200.18968506 47.04963379 200.35202637 45.9543457 200.51928711 C43.28730154 200.95325207 40.64533255 201.45040383 38 202 C38 202.99 38 203.98 38 205 C48.82873964 204.49279908 59.39945425 202.12424249 70 200 C70 201.65 70 203.3 70 205 C69.175 205.04898438 68.35 205.09796875 67.5 205.1484375 C60.72144818 205.58722768 53.99125686 206.17118215 47.25 207 C46.5590625 207.0829834 45.868125 207.1659668 45.15625 207.25146484 C41.46004996 207.70224926 41.46004996 207.70224926 38 209 C38 209.66 38 210.32 38 211 C48.0695786 210.40211877 58.00624051 209.33682757 68 208 C68.66 209.65 69.32 211.3 70 213 C72.64 212.67 75.28 212.34 78 212 C79.00360417 204.86591641 79.99972659 197.73081653 80.99072266 190.5949707 C81.32852909 188.16895048 81.66803005 185.74316557 82.00927734 183.31762695 C82.50025943 179.82564213 82.98508603 176.33284876 83.46875 172.83984375 C83.62186646 171.76041 83.77498291 170.68097626 83.93273926 169.5688324 C85.67099958 159.9993425 85.67099958 159.9993425 83.27734375 151.0078125 C82.50519531 150.05648437 81.73304688 149.10515625 80.9375 148.125 C80.12152344 147.10148438 79.30554688 146.07796875 78.46484375 145.0234375 C77.24474609 143.52683594 77.24474609 143.52683594 76 142 C74.66348006 140.25243249 73.32974892 138.50272519 72 136.75 C71.02660205 135.4791749 70.03566924 134.22061018 69 133 C66.87044814 133 64.61807394 134.89847861 62.86328125 135.921875 Z " fill="#876956" transform="translate(192,11)"/>
<path d="M0 0 C0.83660156 -0.00773437 1.67320312 -0.01546875 2.53515625 -0.0234375 C5.41856726 0.45478677 6.79378712 1.42269006 8.9375 3.375 C9.875 5.25 9.875 5.25 9.9375 7.375 C8.5 10.125 8.5 10.125 6.9375 12.375 C5.2875 12.045 3.6375 11.715 1.9375 11.375 C1.9375 9.395 1.9375 7.415 1.9375 5.375 C-6.47611205 6.90136325 -11.60945161 15.13815531 -16.19921875 21.6796875 C-16.81410156 22.56914063 -17.42898438 23.45859375 -18.0625 24.375 C-22.62941325 30.78511474 -27.72830149 36.59035806 -33.0625 42.375 C-30.85895268 49.90830956 -25.95428972 57.31061119 -19.0625 61.375 C-17.0825 61.375 -15.1025 61.375 -13.0625 61.375 C-13.0625 56.425 -13.0625 51.475 -13.0625 46.375 C-12.0725 46.375 -11.0825 46.375 -10.0625 46.375 C-9.0725 48.355 -9.0725 48.355 -8.0625 50.375 C-6.90977636 47.98227078 -5.76521155 45.58618379 -4.625 43.1875 C-4.29951172 42.51396484 -3.97402344 41.84042969 -3.63867188 41.14648438 C-1.94570189 37.56855813 -0.60887879 34.33817006 -0.0625 30.375 C1.9175 30.375 3.8975 30.375 5.9375 30.375 C7.17862279 33.93470383 6.95752364 35.32454937 5.5390625 38.8984375 C4.89371448 40.18913354 4.23438029 41.47291456 3.5625 42.75 C0.9818949 47.70960044 -0.55602796 51.77486632 -1.0625 57.375 C-1.949375 57.21 -2.83625 57.045 -3.75 56.875 C-7.0657663 56.99673144 -7.0657663 56.99673144 -8.43359375 59.05078125 C-9.27814061 60.48993119 -10.10734921 61.93817975 -10.921875 63.39453125 C-12.34504561 65.86558434 -13.46711497 67.15364234 -16.0625 68.375 C-19.4905298 68.95711827 -21.84610878 69.10639088 -24.89453125 67.2734375 C-32.16442563 61.34981986 -36.11340859 53.72690821 -40.0625 45.375 C-42.7025 45.375 -45.3425 45.375 -48.0625 45.375 C-48.28808594 46.10460937 -48.51367188 46.83421875 -48.74609375 47.5859375 C-51.80383347 54.06435341 -59.24840766 59.06574159 -65.875 61.5 C-69.55310446 62.46550242 -72.40296008 62.65158369 -76.0625 61.375 C-78.5 59.625 -78.5 59.625 -80.0625 57.375 C-79.99153989 54.46563544 -79.41887616 52.90956424 -77.8125 50.5 C-76.0625 49.375 -76.0625 49.375 -73.4375 49.625 C-71.0625 50.375 -71.0625 50.375 -70.0625 51.375 C-70.02169217 53.37458364 -70.01995644 55.37545254 -70.0625 57.375 C-63.94866913 53.78821923 -58.16943818 49.98405708 -55.0625 43.375 C-55.43353044 40.48477599 -55.43353044 40.48477599 -57.0625 38.375 C-58.59464888 35.31070224 -58.29188548 32.7584358 -58.0625 29.375 C-56.5625 26.4375 -56.5625 26.4375 -55.0625 24.375 C-55.73796875 24.28863281 -56.4134375 24.20226562 -57.109375 24.11328125 C-64.37176997 22.96934909 -64.37176997 22.96934909 -67.75 20.0625 C-69.0625 17.375 -69.0625 17.375 -69.0625 14.875 C-67.03104319 9.79635799 -64.53853035 7.34404606 -59.5625 5.1875 C-50.63110462 1.94330197 -41.51031002 0.93105004 -32.0625 1.375 C-30.35900391 1.436875 -30.35900391 1.436875 -28.62109375 1.5 C-21.75906035 1.8615561 -21.75906035 1.8615561 -19.0625 2.375 C-18.4025 3.365 -17.7425 4.355 -17.0625 5.375 C-17.7225 6.035 -18.3825 6.695 -19.0625 7.375 C-21.04165113 7.27923462 -23.02306934 7.17790192 -24.9921875 6.95703125 C-27.24897829 7.22383704 -27.24897829 7.22383704 -29.04296875 9.23046875 C-31.82565538 13.56327868 -33.65083829 18.08234201 -35.5 22.875 C-35.88865234 23.81214844 -36.27730469 24.74929687 -36.67773438 25.71484375 C-38.93766896 31.07587419 -38.93766896 31.07587419 -37.78515625 36.53125 C-37.21667969 37.1396875 -36.64820313 37.748125 -36.0625 38.375 C-29.80600488 32.67054857 -25.80023226 25.71248823 -21.6875 18.375 C-16.92376075 10.12277028 -10.58152838 -0.09812855 0 0 Z M-60.0625 11.375 C-62.14257422 14.4005625 -62.0625 15.51975109 -62.0625 19.375 C-54.74723673 20.19968521 -50.58861335 19.10385981 -44.6796875 14.6875 C-44.14601563 14.254375 -43.61234375 13.82125 -43.0625 13.375 C-45.13393201 17.40884128 -47.02865872 19.30356799 -51.0625 21.375 C-48.73035852 22.58128008 -46.56607861 23.5404738 -44.0625 24.375 C-43.69898438 23.66214844 -43.33546875 22.94929688 -42.9609375 22.21484375 C-39.36722344 15.36835774 -35.51090444 9.82340444 -30.0625 4.375 C-40.46514582 3.877001 -51.83202057 4.22747839 -60.0625 11.375 Z M-50.0625 27.375 C-52.3018873 30.17423413 -53.15120597 31.57664631 -52.75 35.1875 C-52.523125 35.909375 -52.29625 36.63125 -52.0625 37.375 C-49.72313182 35.24830165 -48.25596152 33.31275144 -47.0625 30.375 C-47.0625 29.385 -47.0625 28.395 -47.0625 27.375 C-48.0525 27.375 -49.0425 27.375 -50.0625 27.375 Z M-43.0625 37.375 C-43.7225 39.025 -44.3825 40.675 -45.0625 42.375 C-43.4125 42.045 -41.7625 41.715 -40.0625 41.375 C-40.3925 40.055 -40.7225 38.735 -41.0625 37.375 C-41.7225 37.375 -42.3825 37.375 -43.0625 37.375 Z " fill="#585858" transform="translate(433.0625,71.625)"/>
<path d="M0 0 C2.31 0 4.62 0 7 0 C8.29552086 3.88656258 7.40976025 4.89387992 5.69140625 8.54296875 C5.19189453 9.61611328 4.69238281 10.68925781 4.17773438 11.79492188 C3.64470703 12.91447266 3.11167969 14.03402344 2.5625 15.1875 C1.76875977 16.88422852 1.76875977 16.88422852 0.95898438 18.61523438 C-0.35200532 21.41437453 -1.67195396 24.20892204 -3 27 C-2.67 27.33 -2.34 27.66 -2 28 C-1.278125 27.38125 -0.55625 26.7625 0.1875 26.125 C4.26978272 23.04060861 6.86728988 22 12 22 C10.58940939 26.61647835 9.09865437 30.98685092 6.8125 35.25 C5.20727405 38.30176036 4.56110277 40.48882217 5 44 C5.598125 43.34 6.19625 42.68 6.8125 42 C9 40 9 40 12 40 C12.103125 39.13375 12.20625 38.2675 12.3125 37.375 C13.59044438 31.10145485 16.28481044 27.25517107 21 23 C21.61875 22.4225 22.2375 21.845 22.875 21.25 C25.94704718 19.44291343 28.455183 19.12437954 32 19 C35.24288968 20.29715587 36.58594182 21.25393785 38.28125 24.30859375 C39 27 39 27 38.13671875 29.46484375 C37.41935547 30.68880859 37.41935547 30.68880859 36.6875 31.9375 C34.63352592 35.67149091 33.34080584 38.68312603 33 43 C35.99324263 41.9024777 36.84610901 41.32317108 38.25 38.375 C38.4975 37.59125 38.745 36.8075 39 36 C40.32 36.33 41.64 36.66 43 37 C43.68707555 39.49064888 44 41.37886292 44 44 C45.32 44 46.64 44 48 44 C47.71482296 37.92021976 47.71482296 37.92021976 45.375 32.4375 C43.60443056 29.29876326 43.74804233 27.29561238 44.3671875 23.8046875 C45 22 45 22 47.125 20 C50.65430495 18.77241567 53.28795856 18.58755095 57 19 C59 20.125 59 20.125 60 22 C59.6875 25.1875 59.6875 25.1875 59 28 C57.1875 28.6875 57.1875 28.6875 55 29 C53.25 27.5625 53.25 27.5625 52 26 C52.42367626 28.9657338 52.93043589 30.89147999 54.5625 33.4375 C56.35272916 36.62877807 56.5266328 38.38880368 56 42 C54.20006226 44.69990662 52.916227 46.5418865 50 48 C45.76279307 48.42535668 42.16919689 48.68440794 38.4375 46.5 C37.963125 46.005 37.48875 45.51 37 45 C36.4740625 45.7734375 36.4740625 45.7734375 35.9375 46.5625 C34 48 34 48 30.4375 47.9375 C27 47 27 47 25.5625 44.9375 C25.376875 44.298125 25.19125 43.65875 25 43 C24.484375 43.639375 23.96875 44.27875 23.4375 44.9375 C20.34064377 47.55791681 17.97932377 47.69389817 14 48 C13.01 46.35 12.02 44.7 11 43 C10.29875 43.825 9.5975 44.65 8.875 45.5 C6 48 6 48 2.875 48.5 C0 48 0 48 -1.9375 46.9375 C-3.6975203 43.72805122 -2.85692027 41.48480909 -2 38 C-0.80761314 35.2498174 0.53892657 32.61634079 2 30 C-3.96711998 34.38400651 -6.85727299 38.85526918 -10.12890625 45.48828125 C-12 48 -12 48 -15.21484375 48.85546875 C-16.13394531 48.90316406 -17.05304688 48.95085937 -18 49 C-18.33 48.34 -18.66 47.68 -19 47 C-18.19897461 44.70019531 -18.19897461 44.70019531 -16.90234375 41.828125 C-16.43304443 40.77729736 -15.96374512 39.72646973 -15.48022461 38.64379883 C-14.97112549 37.52384521 -14.46202637 36.4038916 -13.9375 35.25 C-12.91627808 32.96762174 -11.89544216 30.68507074 -10.875 28.40234375 C-10.37871094 27.29874512 -9.88242187 26.19514648 -9.37109375 25.05810547 C-7.69604314 21.32205064 -6.05670056 17.5730933 -4.4375 13.8125 C-4.00308594 12.80832031 -3.56867188 11.80414063 -3.12109375 10.76953125 C-0.85787788 5.5421877 -0.85787788 5.5421877 0 0 Z M24.74609375 27.16015625 C19.94274541 32.22140249 17.43519058 37.03695075 17 44 C19.71363318 43.6310411 20.83784238 43.16571371 22.78125 41.1796875 C23.3484375 40.41914062 23.915625 39.65859375 24.5 38.875 C25.10328125 38.06804687 25.7065625 37.26109375 26.328125 36.4296875 C27.77308736 34.32976556 29.04137835 32.24059859 30.25 30 C32 27 32 27 35 26 C34.67 25.01 34.34 24.02 34 23 C29.13415684 23 28.17022812 24.03057107 24.74609375 27.16015625 Z " fill="#585858" transform="translate(503,81)"/>
<path d="M0 0 C2.21875 1.5859375 2.21875 1.5859375 3.21875 3.3984375 C3.21875 7.58343724 1.34184848 10.39844117 -1.484375 13.38671875 C-12.68729742 23.6854683 -25.93317807 25.89143091 -40.78125 26.5859375 C-41.42882625 28.02265318 -42.07424453 29.46034166 -42.71875 30.8984375 C-43.07839844 31.69894531 -43.43804688 32.49945313 -43.80859375 33.32421875 C-45.72382998 37.77771985 -46.31732853 41.77063564 -45.78125 46.5859375 C-44.14437815 50.17146631 -43.09152417 51.37908805 -39.78125 53.5859375 C-33.63259983 54.17857848 -28.80206723 52.02156168 -23.9296875 48.45703125 C-19.28046692 44.40798278 -14.77513308 39.82622162 -13.84375 33.5234375 C-13.823125 32.5540625 -13.8025 31.5846875 -13.78125 30.5859375 C-22.08981829 30.74270294 -28.71499158 34.55473303 -34.59375 40.3828125 C-36.0987461 42.13309558 -36.0987461 42.13309558 -37.78125 44.5859375 C-38.44125 44.2559375 -39.10125 43.9259375 -39.78125 43.5859375 C-38.66094915 37.82079379 -35.01800167 34.31847227 -30.4765625 30.80078125 C-24.96825855 27.17147818 -20.39054973 25.27756592 -13.78125 26.5859375 C-11.28125 27.5859375 -11.28125 27.5859375 -9.78125 29.5859375 C-8.68194297 34.05645275 -8.34937837 36.38629408 -9.90625 40.7109375 C-15.15714182 48.76230495 -21.47341538 54.33771276 -30.96875 56.9609375 C-37.84011539 58.08739084 -42.58359253 58.02908054 -48.78125 54.5859375 C-52.52164517 51.72095397 -52.52164517 51.72095397 -53.78125 48.5859375 C-54.84076786 39.86761908 -54.0069427 31.746172 -50.78125 23.5859375 C-51.77125 22.9259375 -52.76125 22.2659375 -53.78125 21.5859375 C-53.78125 20.9259375 -53.78125 20.2659375 -53.78125 19.5859375 C-54.44125 19.5859375 -55.10125 19.5859375 -55.78125 19.5859375 C-58.67148128 16.02872977 -59.30886386 12.9694492 -59.140625 8.51953125 C-58.56259088 5.40945635 -57.03796858 3.71370073 -54.78125 1.5859375 C-48.63996995 -0.46115585 -41.18259349 -0.48609084 -35.28125 2.1484375 C-34.04375 2.86 -34.04375 2.86 -32.78125 3.5859375 C-28.91472615 3.10842512 -25.38786285 1.7919412 -21.71875 0.5234375 C-14.68189439 -1.66509648 -6.85452653 -3.48502613 0 0 Z M-16.90625 3.8359375 C-17.91945313 4.25359375 -18.93265625 4.67125 -19.9765625 5.1015625 C-22.85301234 6.62391757 -24.72011465 8.07672925 -26.78125 10.5859375 C-26.64483623 12.80452003 -26.64483623 12.80452003 -25.78125 14.5859375 C-27.10125 13.5959375 -28.42125 12.6059375 -29.78125 11.5859375 C-31.11754746 13.06242688 -32.45021671 14.5422008 -33.78125 16.0234375 C-34.895 17.25900391 -34.895 17.25900391 -36.03125 18.51953125 C-37.88896092 20.26181205 -37.88896092 20.26181205 -37.78125 21.5859375 C-27.00478187 22.53124172 -15.63174287 18.96134822 -7.296875 12.015625 C-6.79671875 11.54382813 -6.2965625 11.07203125 -5.78125 10.5859375 C-5.23339844 10.07675781 -4.68554688 9.56757812 -4.12109375 9.04296875 C-2.51172183 7.29283544 -2.18037627 5.90086985 -1.78125 3.5859375 C-7.03608456 0.08271446 -11.35911688 1.48088866 -16.90625 3.8359375 Z M-53.78125 5.5859375 C-55.22555855 8.47455459 -55.15813506 10.38241451 -54.78125 13.5859375 C-52.02611941 17.02985074 -50.06948264 18.73378871 -45.78125 19.5859375 C-42.01770964 15.32552524 -38.28243038 11.06744839 -34.78125 6.5859375 C-40.768834 3.5921455 -47.72400572 1.22472161 -53.78125 5.5859375 Z " fill="#585858" transform="translate(660.78125,77.4140625)"/>
<path d="M0 0 C2.31 0 4.62 0 7 0 C8.38454332 4.15362996 6.71491731 6.74060702 5.0625 10.5625 C2.87927766 15.1292678 2.87927766 15.1292678 2 20 C2.928125 20.12375 3.85625 20.2475 4.8125 20.375 C8 21 8 21 11 23 C12.1875 26.625 12.1875 26.625 13 30 C13.47050781 29.44570312 13.94101562 28.89140625 14.42578125 28.3203125 C15.04839844 27.59585938 15.67101562 26.87140625 16.3125 26.125 C16.92738281 25.40570313 17.54226563 24.68640625 18.17578125 23.9453125 C20.26470442 21.7177242 21.91392215 20.10383153 25.04296875 19.8046875 C25.75066406 19.82789062 26.45835937 19.85109375 27.1875 19.875 C28.445625 19.91625 29.70375 19.9575 31 20 C31.875 23.0625 31.875 23.0625 32 27 C29.88410988 30.77837521 27.15429961 33.36788355 23.375 35.4375 C21 36 21 36 17 36 C17.33 38.64 17.66 41.28 18 44 C22.48684201 43.66132538 22.48684201 43.66132538 25.875 40.9375 C26.24625 40.298125 26.6175 39.65875 27 39 C28.32 39.33 29.64 39.66 31 40 C28.93145393 44.02822129 27.21285902 46.2212373 23 48 C19.09594619 48.63771397 15.99095734 48.63522906 12.5625 46.4375 C10.56343786 43.31896306 10.28139524 40.65813817 10 37 C9.443125 37.9075 8.88625 38.815 8.3125 39.75 C5.69828455 43.42403253 3.04152322 45.97923839 -1 48 C-2.70702735 48.06996014 -4.41668003 48.08440154 -6.125 48.0625 C-7.03507813 48.05347656 -7.94515625 48.04445312 -8.8828125 48.03515625 C-9.58148437 48.02355469 -10.28015625 48.01195312 -11 48 C-11 47.34 -11 46.68 -11 46 C-11.66 46 -12.32 46 -13 46 C-14.17734284 40.511744 -13.67400552 36.82667885 -11.54296875 31.74609375 C-11.27994461 31.08215103 -11.01692047 30.41820831 -10.7459259 29.73414612 C-9.90823232 27.62882451 -9.04866495 25.53331523 -8.1875 23.4375 C-7.34223979 21.33630044 -6.50152023 19.23332506 -5.66120911 17.13014221 C-5.13872954 15.82738164 -4.61249549 14.52611812 -4.08183289 13.22666931 C-1.190599 6.80969457 -1.190599 6.80969457 0 0 Z M0 21 C-1.35194887 23.86659903 -2.67807247 26.74444847 -4 29.625 C-4.3815625 30.43324219 -4.763125 31.24148437 -5.15625 32.07421875 C-7.19679724 36.556135 -8.52176477 39.96170899 -8 45 C-5.22184153 44.91828946 -3.49264865 44.45693162 -1.4375 42.55078125 C3.37387321 37.00567363 6.43245975 32.51990826 7 25 C6.10664203 22.64214682 6.10664203 22.64214682 2.9375 21.875 C1.968125 21.58625 0.99875 21.2975 0 21 Z M25.30859375 24.42578125 C24.69113281 25.04839844 24.07367187 25.67101562 23.4375 26.3125 C22.81746094 26.92738281 22.19742188 27.54226562 21.55859375 28.17578125 C19.78409726 30.02133387 19.78409726 30.02133387 19 33 C22.92739681 31.69086773 25.35638984 30.21009805 28 27 C28.7872678 24.8618034 28.7872678 24.8618034 29 23 C26.8861681 22.78516123 26.8861681 22.78516123 25.30859375 24.42578125 Z M11 32 C12 34 12 34 12 34 Z " fill="#585858" transform="translate(765,81)"/>
<path d="M0 0 C1.9375 1.1875 1.9375 1.1875 3 3 C3.3125 5.5625 3.3125 5.5625 3 8 C2.34 8.66 1.68 9.32 1 10 C-1.125 9.625 -1.125 9.625 -3 9 C-3.495 6.525 -3.495 6.525 -4 4 C-4.33 4 -4.66 4 -5 4 C-4.6414546 8.30254485 -3.96786579 11.32897446 -1.875 15.125 C-0.5164947 17.69326914 0 18.78529661 0 21.75 C-1.52073428 25.17165213 -3.65866377 27.32933188 -7 29 C-14.37560976 29.46829268 -14.37560976 29.46829268 -17 27.5 C-17.33 27.005 -17.66 26.51 -18 26 C-18.61875 26.309375 -19.2375 26.61875 -19.875 26.9375 C-23.57805244 28.78902622 -25.7922269 29.17532388 -30 29 C-30.66 28.67 -31.32 28.34 -32 28 C-33.85273437 21.64776788 -32.01370351 17.70404826 -29 12 C-34.66565432 15.86922734 -37.08276206 20.43286703 -40.09375 26.55078125 C-40.7228125 27.35902344 -41.351875 28.16726562 -42 29 C-45.21875 29.35546875 -45.21875 29.35546875 -48 29 C-46.47981963 22.41255175 -43.95141523 16.5170085 -40.9375 10.5 C-40.40866211 9.44039062 -40.40866211 9.44039062 -39.86914062 8.359375 C-38.44883254 5.57805062 -37.22219949 3.22219949 -35 1 C-32.375 0.875 -32.375 0.875 -30 1 C-30 4.69418201 -31.28179295 6.77836178 -33 10 C-32.113125 9.21625 -31.22625 8.4325 -30.3125 7.625 C-26.06986605 4.10939018 -22.57209292 2.68159469 -17 3 C-18.33097817 7.30156714 -19.99937293 11.18797357 -22.0625 15.1875 C-23.57707185 18.13147217 -24.95277469 20.85832407 -26 24 C-24.02463255 23.65213292 -24.02463255 23.65213292 -22 23 C-21.67 22.34 -21.34 21.68 -21 21 C-20.34 21 -19.68 21 -19 21 C-18.34 19.68 -17.68 18.36 -17 17 C-15.0625 17.3125 -15.0625 17.3125 -13 18 C-11.95550089 21.13349732 -12.06576355 21.98968256 -13 25 C-11.68 25 -10.36 25 -9 25 C-8.67293699 20.33935216 -8.47711419 17.34636583 -11.0625 13.375 C-13 10 -13 10 -13.0625 6.8125 C-10.67615545 0.49570559 -6.41093728 -0.83104742 0 0 Z " fill="#585858" transform="translate(485,100)"/>
<path d="M0 0 C0.7425 0.2475 1.485 0.495 2.25 0.75 C1.59 2.73 0.93 4.71 0.25 6.75 C0.69730469 6.37746094 1.14460937 6.00492187 1.60546875 5.62109375 C6.57130713 1.73524581 6.57130713 1.73524581 10.125 1.8125 C12.25 2.75 12.25 2.75 13.25 4.75 C13.25 5.41 13.25 6.07 13.25 6.75 C13.84167969 6.37746094 14.43335938 6.00492187 15.04296875 5.62109375 C15.83316406 5.14800781 16.62335937 4.67492187 17.4375 4.1875 C18.21480469 3.71183594 18.99210938 3.23617187 19.79296875 2.74609375 C22.73360967 1.55394203 24.25446363 1.86144836 27.25 2.75 C26.68410156 3.84699219 26.11820313 4.94398437 25.53515625 6.07421875 C24.79395074 7.52848273 24.05308305 8.98291893 23.3125 10.4375 C22.93931641 11.15873047 22.56613281 11.87996094 22.18164062 12.62304688 C20.31034761 16.31505742 18.76730444 19.58693096 18.25 23.75 C20.23491642 23.48323796 20.23491642 23.48323796 22.25 22.75 C22.745 21.265 22.745 21.265 23.25 19.75 C23.91 19.75 24.57 19.75 25.25 19.75 C24.93306247 22.68167219 24.61774166 24.33982661 22.625 26.5625 C19.4186245 28.16568775 16.78249148 27.95379759 13.25 27.75 C11.19749174 23.64498348 11.01249033 21.16967741 12.25 16.75 C13.46255572 14.31507029 14.81328538 12.06728165 16.25 9.75 C9.8970828 14.74811642 4.85451676 19.93644973 2.25 27.75 C0.93 27.42 -0.39 27.09 -1.75 26.75 C-2.70971191 19.55216064 0.58800119 14.77703971 4.25 8.75 C-1.68370321 13.10945542 -4.59685181 17.56014677 -7.87890625 24.140625 C-10.17986508 27.34947782 -11.96891889 27.88029831 -15.75 28.75 C-16.75 26.75 -16.75 26.75 -16.0090332 24.47509766 C-14.70327236 21.43720509 -13.39403218 18.4017104 -12.0625 15.375 C-11.61455078 14.32054688 -11.16660156 13.26609375 -10.70507812 12.1796875 C-10.26228516 11.16390625 -9.81949219 10.148125 -9.36328125 9.1015625 C-8.95891846 8.17166504 -8.55455566 7.24176758 -8.13793945 6.28369141 C-4.47302095 -0.40663827 -4.47302095 -0.40663827 0 0 Z " fill="#585858" transform="translate(724.75,101.25)"/>
<path d="M0 0 C2.31 0 4.62 0 7 0 C7.76473918 2.25666897 8.1286294 3.57642141 7.42675781 5.88769531 C7.10545898 6.52803711 6.78416016 7.16837891 6.453125 7.828125 C5.9271875 8.90513672 5.9271875 8.90513672 5.390625 10.00390625 C5.01421875 10.74511719 4.6378125 11.48632812 4.25 12.25 C1.51186453 17.75560811 -0.92871939 23.20565803 -3 29 C-2.43152344 28.57847656 -1.86304688 28.15695313 -1.27734375 27.72265625 C3.57376495 24.28071769 7.02230894 22.25436983 13 22 C11.02950652 27.11754375 8.62683 32.00667955 6.2421875 36.94140625 C4.74914545 40.06746754 4.74914545 40.06746754 5 44 C5.61875 43.34 6.2375 42.68 6.875 42 C9 40 9 40 11 40 C10.67842796 42.97454134 10.37860258 44.59335278 8.3125 46.8125 C5.30660842 48.35606595 3.33699345 48.42599916 0 48 C-1.9375 46.9375 -1.9375 46.9375 -3 45 C-2.88719668 39.24703063 -0.74142509 34.90906354 2 30 C-3.96711998 34.38400651 -6.85727299 38.85526918 -10.12890625 45.48828125 C-12 48 -12 48 -15.21484375 48.85546875 C-16.13394531 48.90316406 -17.05304687 48.95085937 -18 49 C-19 47 -19 47 -18.30664062 44.8996582 C-17.92701172 44.04202881 -17.54738281 43.18439941 -17.15625 42.30078125 C-16.73730469 41.34534424 -16.31835938 40.38990723 -15.88671875 39.40551758 C-15.42910156 38.38482178 -14.97148438 37.36412598 -14.5 36.3125 C-14.04238281 35.27697998 -13.58476563 34.24145996 -13.11328125 33.17456055 C-4.3655644 13.45697399 -4.3655644 13.45697399 -0.8203125 6.77734375 C0.25246527 4.45299192 0.14037239 2.52670304 0 0 Z " fill="#585858" transform="translate(671,81)"/>
<path d="M0 0 C0.49179845 3.12368857 0.65267757 5.89129673 0 9 C-2.24140048 11.48861377 -5.0146598 12.7374269 -8 14.1875 C-9.74584028 15.11391199 -11.4905802 16.04239976 -13.234375 16.97265625 C-14.16830078 17.45750488 -15.10222656 17.94235352 -16.06445312 18.44189453 C-21.21796875 21.17723524 -26.22324354 24.1651612 -31.25 27.125 C-33.28123815 28.30731203 -35.3124879 29.48960413 -37.34375 30.671875 C-40.82528032 32.70899026 -44.28555462 34.77309187 -47.71875 36.890625 C-48.4106543 37.31585449 -49.10255859 37.74108398 -49.81542969 38.17919922 C-51.06063308 38.94888703 -52.3012926 39.72600067 -53.53613281 40.51220703 C-56.76153685 42.50618069 -58.05744577 43 -62 43 C-61.48772011 38.45064875 -61.48772011 38.45064875 -59.35546875 36.48046875 C-58.28232422 35.84044922 -58.28232422 35.84044922 -57.1875 35.1875 C-56.36765625 34.68089844 -55.5478125 34.17429688 -54.703125 33.65234375 C-53.81109375 33.10707031 -52.9190625 32.56179687 -52 32 C-50.14146677 30.75650161 -48.28753681 29.50610423 -46.4375 28.25 C-41.19460263 24.75253126 -35.87272509 21.4030664 -30.5168457 18.08325195 C-23.77168971 13.88845538 -17.12008592 9.55292701 -10.47460938 5.20239258 C-9.25354492 4.40418091 -9.25354492 4.40418091 -8.0078125 3.58984375 C-7.28223145 3.11409912 -6.55665039 2.63835449 -5.80908203 2.14819336 C-2.42440995 0 -2.42440995 0 0 0 Z " fill="#866956" transform="translate(194,73)"/>
<path d="M0 0 C0.52259631 3.13557785 0.6721726 5.87851472 0 9 C-2.34599412 11.72599511 -5.21672516 13.34248222 -8.3125 15.125 C-9.13685547 15.63506592 -9.96121094 16.14513184 -10.81054688 16.6706543 C-13.19221344 18.14004917 -15.594412 19.5702588 -18 21 C-20.00499735 22.26293427 -22.00608702 23.53213741 -24 24.8125 C-24.845625 25.34488281 -25.69125 25.87726563 -26.5625 26.42578125 C-29.93293082 28.60251782 -33.19136807 30.92716565 -36.46484375 33.24609375 C-40.01496241 35.70218509 -43.65936879 37.99628157 -47.31640625 40.2890625 C-50.64950016 42.41409181 -53.89309347 44.65818897 -57.125 46.93359375 C-59 48 -59 48 -62 48 C-62.21533203 45.6862793 -62.21533203 45.6862793 -62 43 C-60.56982422 41.39770508 -60.56982422 41.39770508 -58.5546875 40.01953125 C-57.81444336 39.50044189 -57.07419922 38.98135254 -56.31152344 38.4465332 C-55.5074707 37.90730225 -54.70341797 37.36807129 -53.875 36.8125 C-53.05547852 36.24297607 -52.23595703 35.67345215 -51.39160156 35.08666992 C-49.72152124 33.92642241 -48.04703061 32.77249713 -46.36816406 31.625 C-43.12762712 29.40139032 -39.93901919 27.10901816 -36.75 24.8125 C-35.62026467 24.00584755 -34.4900588 23.19985369 -33.359375 22.39453125 C-30.49011528 20.34972335 -27.62245823 18.30268684 -24.75585938 16.25415039 C-23.5961869 15.42583595 -22.43603943 14.59818607 -21.27539062 13.77124023 C-18.1988721 11.57813444 -15.13258171 9.37219053 -12.078125 7.1484375 C-11.11712891 6.45234375 -11.11712891 6.45234375 -10.13671875 5.7421875 C-8.90216241 4.84758146 -7.67027206 3.94928186 -6.44140625 3.046875 C-2.2249244 0 -2.2249244 0 0 0 Z " fill="#866956" transform="translate(194,52)"/>
<path d="M0 0 C0.49371604 3.12686825 0.72424116 4.98501087 0 8 C-2.48766139 10.96251413 -5.80384733 12.86393772 -9 15 C-11.12922609 16.52729298 -13.24481848 18.07257267 -15.36132812 19.61743164 C-22.2273721 24.62067926 -29.15390656 29.54041348 -36.0793457 34.4609375 C-39.89475327 37.18184776 -43.64171519 39.97987015 -47.375 42.8125 C-51.7858027 46.14720874 -56.25167424 49.16926733 -61 52 C-61.33 50.35 -61.66 48.7 -62 47 C-54.74997957 40.64961714 -47.51041359 34.49277458 -39.63671875 28.91796875 C-35.9230283 26.21660281 -32.41946908 23.28253068 -28.8828125 20.35546875 C-23.68659746 16.10978085 -18.35618426 12.04108597 -13 8 C-12.46713379 7.59765137 -11.93426758 7.19530273 -11.38525391 6.78076172 C-2.36369926 0 -2.36369926 0 0 0 Z " fill="#866956" transform="translate(194,32)"/>
<path d="M0 0 C0.99 0.66 1.98 1.32 3 2 C4.97024556 1.95179591 4.97024556 1.95179591 7 1.5 C10.54699257 0.80134995 10.73195556 0.82130371 14 3 C14.556875 2.67 15.11375 2.34 15.6875 2 C18.43161823 0.81335428 20.03954738 0.55593211 23 1 C26.08239837 3.30326815 26.91955552 4.50042812 27.5390625 8.34765625 C27.56742187 9.57355469 27.59578125 10.79945313 27.625 12.0625 C27.65993368 17.37492118 27.65993368 17.37492118 30 22 C29 23 29 23 26.93359375 23.09765625 C26.10988281 23.08605469 25.28617187 23.07445312 24.4375 23.0625 C23.61121094 23.05347656 22.78492188 23.04445312 21.93359375 23.03515625 C20.97646484 23.01775391 20.97646484 23.01775391 20 23 C19.67 22.01 19.34 21.02 19 20 C19.66 19.67 20.32 19.34 21 19 C21 15.04 21 11.08 21 7 C18.525 6.505 18.525 6.505 16 6 C15.67 10.62 15.34 15.24 15 20 C15.66 20 16.32 20 17 20 C17 20.99 17 21.98 17 23 C13.7 23 10.4 23 7 23 C6.67 22.01 6.34 21.02 6 20 C6.66 19.67 7.32 19.34 8 19 C8 14.71 8 10.42 8 6 C6.35 5.67 4.7 5.34 3 5 C2.67 9.95 2.34 14.9 2 20 C2.99 20.33 3.98 20.66 5 21 C4.67 21.66 4.34 22.32 4 23 C0.7 23 -2.6 23 -6 23 C-6 22.01 -6 21.02 -6 20 C-5.34 19.67 -4.68 19.34 -4 19 C-3.97287847 17.083412 -3.95354903 15.1667127 -3.9375 13.25 C-3.92589844 12.18265625 -3.91429687 11.1153125 -3.90234375 10.015625 C-3.98489913 7.46631499 -4.25382442 5.42066409 -5 3 C-3.35 2.01 -1.7 1.02 0 0 Z " fill="#866A55" transform="translate(467,169)"/>
<path d="M0 0 C0.99 0.66 1.98 1.32 3 2 C5.02260018 1.74316188 7.04542762 1.48270773 9.05859375 1.16015625 C11.53682105 0.95571496 12.98710495 1.57419934 15 3 C15.99 2.34 16.98 1.68 18 1 C20.4375 0.5625 20.4375 0.5625 23 1 C26.76237937 4.74852161 27.49253048 7.38643252 27.625 12.625 C27.70261263 17.63523558 27.70261263 17.63523558 30 22 C29 23 29 23 26.71484375 23.09765625 C25.34005859 23.08025391 25.34005859 23.08025391 23.9375 23.0625 C23.01839844 23.05347656 22.09929688 23.04445312 21.15234375 23.03515625 C20.44207031 23.02355469 19.73179687 23.01195312 19 23 C19 22.01 19 21.02 19 20 C19.66 19.67 20.32 19.34 21 19 C21 14.38 21 9.76 21 5 C19.02 5.66 17.04 6.32 15 7 C14.91892417 8.93681161 14.86077525 10.8745934 14.8125 12.8125 C14.77769531 13.89144531 14.74289062 14.97039062 14.70703125 16.08203125 C14.73463048 19.01948844 14.73463048 19.01948844 16.51171875 20.88671875 C17.00285156 21.25410156 17.49398437 21.62148437 18 22 C17 23 17 23 14.71484375 23.09765625 C13.34005859 23.08025391 13.34005859 23.08025391 11.9375 23.0625 C11.01839844 23.05347656 10.09929688 23.04445312 9.15234375 23.03515625 C8.44207031 23.02355469 7.73179687 23.01195312 7 23 C6.67 22.01 6.34 21.02 6 20 C6.66 19.67 7.32 19.34 8 19 C8 14.38 8 9.76 8 5 C6.35 5.33 4.7 5.66 3 6 C2.94597726 8.10388569 2.90719744 10.20816714 2.875 12.3125 C2.85179687 13.48425781 2.82859375 14.65601563 2.8046875 15.86328125 C2.74679382 19.16393661 2.74679382 19.16393661 5 22 C4 23 4 23 1.93359375 23.09765625 C1.10988281 23.08605469 0.28617187 23.07445312 -0.5625 23.0625 C-1.38878906 23.05347656 -2.21507812 23.04445312 -3.06640625 23.03515625 C-4.02353516 23.01775391 -4.02353516 23.01775391 -5 23 C-5.33 22.01 -5.66 21.02 -6 20 C-5.34 20 -4.68 20 -4 20 C-3.94550162 18.27119018 -3.90698312 16.54187288 -3.875 14.8125 C-3.85179687 13.84957031 -3.82859375 12.88664063 -3.8046875 11.89453125 C-4.0086456 8.87187222 -4.73125368 6.73230015 -6 4 C-4.02 2.68 -2.04 1.36 0 0 Z " fill="#866956" transform="translate(504,169)"/>
<path d="M0 0 C1.40824808 2.00119464 1.88045358 3.2527516 2.1875 5.6875 C1.2265625 8.0546875 1.2265625 8.0546875 -0.1875 10.5625 C-2.18707517 14.30685682 -3.47345287 17.39290301 -3.8125 21.6875 C-2.4925 21.0275 -1.1725 20.3675 0.1875 19.6875 C0.1875 23.6875 0.1875 23.6875 -0.9375 25.4375 C-3.72945145 27.29880097 -5.54107781 27.23273703 -8.8125 26.6875 C-10.6875 24.1875 -10.6875 24.1875 -11.8125 21.6875 C-12.8334375 22.9559375 -12.8334375 22.9559375 -13.875 24.25 C-16.8125 26.6875 -16.8125 26.6875 -20.5625 26.625 C-21.635 26.315625 -22.7075 26.00625 -23.8125 25.6875 C-25.82990075 21.65269851 -25.47529929 16.71191958 -24.09375 12.4921875 C-21.18393051 6.32055423 -16.41245131 0.52748053 -9.9375 -2.0625 C-6.26090676 -2.49504038 -3.04133049 -2.20234277 0 0 Z M-12.91015625 6.76171875 C-17.93512181 11.84859354 -19.33408889 15.75053897 -19.8125 22.6875 C-17.31406936 22.30601919 -16.07359846 21.95527617 -14.28515625 20.12109375 C-13.58712891 19.13302734 -13.58712891 19.13302734 -12.875 18.125 C-12.36453125 17.40957031 -11.8540625 16.69414063 -11.328125 15.95703125 C-9.4498952 13.14452736 -7.68429945 10.27733959 -5.98828125 7.3515625 C-4.8125 5.6875 -4.8125 5.6875 -1.8125 3.6875 C-2.1425 3.0275 -2.4725 2.3675 -2.8125 1.6875 C-7.997152 1.6875 -9.25614293 3.3662762 -12.91015625 6.76171875 Z " fill="#585858" transform="translate(585.8125,102.3125)"/>
<path d="M0 0 C1.86132331 2.95244387 2.28700875 3.66495833 2 7 C0.70788214 10.23029465 -0.8177896 13.19692929 -2.51953125 16.23046875 C-3.76994363 18.56963069 -4.52529133 20.41684501 -5 23 C-4.38125 22.505 -3.7625 22.01 -3.125 21.5 C-1 20 -1 20 1 20 C0.60856977 22.27029534 0.11258722 23.83408198 -1.1875 25.75 C-3.90495805 27.624109 -5.78585622 27.4687293 -9 27 C-10.875 25 -10.875 25 -12 23 C-12.721875 23.66 -13.44375 24.32 -14.1875 25 C-17 27 -17 27 -19.625 27.4375 C-22.47861069 26.91183487 -23.21102516 26.23874536 -25 24 C-26.19875318 19.02517431 -25.16877124 14.69495332 -22.8125 10.25 C-19.23702035 4.51724772 -15.57496456 0.52053763 -9.0625 -1.61328125 C-5.43843701 -2.29279306 -3.22909279 -1.67912825 0 0 Z M-11.33984375 5.10546875 C-15.74214139 10.12926723 -20 16.24168354 -20 23 C-14.93818628 22.12915033 -12.88050069 19.0237922 -10 15 C-8.6479146 12.63764855 -7.37973434 10.26131704 -6.17578125 7.8203125 C-5 6 -5 6 -2 5 C-2.33 4.01 -2.66 3.02 -3 2 C-7.12757851 2 -8.33488186 2.43866114 -11.33984375 5.10546875 Z " fill="#585858" transform="translate(708,102)"/>
<path d="M0 0 C0.40843923 2.71203652 0.13336867 5.2437142 0 8 C-3 7 -3 7 -4.0625 5 C-4.5265625 4.01 -4.5265625 4.01 -5 3 C-8.47263273 1.26368364 -12.21193013 1.39809598 -16 2 C-18.75569447 4.18159145 -20.43588747 5.87177494 -22 9 C-22.5917588 14.68998842 -22.25047199 19.12429202 -19 24 C-16.61022738 26.56047067 -15.22945296 26.96028699 -11.75 27.5625 C-6.66563553 26.79984533 -3.80265645 24.31868199 0 21 C1 24 1 24 0.0625 27.0625 C-2 30 -2 30 -5.5625 31.5 C-11.55647296 32.54482098 -17.05881721 31.6911801 -22.34375 28.65234375 C-26.32026815 25.6051206 -28.44337076 22.90600496 -29.625 18 C-30.18697411 13.53806097 -29.87590471 10.1596148 -28 6 C-24.2852743 1.4597797 -20.23245551 -0.95163605 -14.6875 -2.75 C-9.35331865 -3.24620292 -4.49808433 -2.99872289 0 0 Z " fill="#866855" transform="translate(434,161)"/>
<path d="M0 0 C0.04241723 2.33294775 0.04092937 4.66702567 0 7 C-1.9878024 8.9878024 -5.77617615 8.53025904 -8.5078125 8.75390625 C-9.26665741 8.81907944 -10.02550232 8.88425262 -10.80734253 8.95140076 C-12.41955494 9.08883353 -14.03195969 9.22402521 -15.64453125 9.35717773 C-18.09426394 9.5599558 -20.54322241 9.77059678 -22.9921875 9.98242188 C-24.55985579 10.11505747 -26.12756307 10.24723314 -27.6953125 10.37890625 C-28.78478683 10.47263268 -28.78478683 10.47263268 -29.89627075 10.56825256 C-34.28092606 10.92580024 -38.60069265 11.05728828 -43 11 C-43 9.35 -43 7.7 -43 6 C-37.68198684 4.97280803 -32.36182202 3.95794845 -27.03930664 2.9543457 C-25.2297462 2.61135712 -23.42081467 2.26503279 -21.61254883 1.9152832 C-19.01021749 1.41255198 -16.40584528 0.92194033 -13.80078125 0.43359375 C-12.59268547 0.19617714 -12.59268547 0.19617714 -11.36018372 -0.04603577 C-7.27702266 -0.79897615 -4.07049965 -1.2307821 0 0 Z " fill="#876B56" transform="translate(113,227)"/>
<path d="M0 0 C1.134375 0.020625 2.26875 0.04125 3.4375 0.0625 C3.1075 1.3825 2.7775 2.7025 2.4375 4.0625 C2.97375 3.381875 3.51 2.70125 4.0625 2 C6.4375 0.0625 6.4375 0.0625 9.625 0.25 C12.4375 1.0625 12.4375 1.0625 13.4375 2.0625 C13.73728682 4.91047478 13.83821289 6.48146632 12.1875 8.875 C10.4375 10.0625 10.4375 10.0625 6.4375 10.0625 C6.4375 9.0725 6.4375 8.0825 6.4375 7.0625 C0.17765882 11.68014908 -3.28450501 16.5255406 -6.7265625 23.48828125 C-9.00241113 26.67931157 -10.81131753 27.1956301 -14.5625 28.0625 C-15.85342162 24.18973515 -14.99073722 23.19482799 -13.2890625 19.5546875 C-12.7940625 18.48605469 -12.2990625 17.41742188 -11.7890625 16.31640625 C-11.26054688 15.20136719 -10.73203125 14.08632812 -10.1875 12.9375 C-9.40632812 11.25333984 -9.40632812 11.25333984 -8.609375 9.53515625 C-4.19320301 0.07356497 -4.19320301 0.07356497 0 0 Z " fill="#585858" transform="translate(809.5625,101.9375)"/>
<path d="M0 0 C0 2.31 0 4.62 0 7 C-7.26616695 9.01888494 -14.60199697 10.07532005 -22.0625 11.125 C-23.30322266 11.30675781 -24.54394531 11.48851562 -25.82226562 11.67578125 C-27.02689453 11.84722656 -28.23152344 12.01867187 -29.47265625 12.1953125 C-30.55812744 12.35016113 -31.64359863 12.50500977 -32.76196289 12.66455078 C-36.19647685 13.02035431 -39.54956614 13.05612234 -43 13 C-43 11.68 -43 10.36 -43 9 C-34.49627689 6.42974286 -25.99303611 4.24213281 -17.30712891 2.39550781 C-13.86669539 1.65975942 -10.48692696 0.87472091 -7.1171875 -0.140625 C-4.12071177 -0.96672107 -2.83127845 -1.13251138 0 0 Z " fill="#886956" transform="translate(113,213)"/>
<path d="M0 0 C0.125 2.875 0.125 2.875 0 6 C-2.34220711 8.34220711 -3.50518574 8.51358194 -6.69921875 9.18359375 C-7.65473633 9.38766846 -8.61025391 9.59174316 -9.59472656 9.80200195 C-10.6153418 10.01171631 -11.63595703 10.22143066 -12.6875 10.4375 C-13.72229492 10.65559326 -14.75708984 10.87368652 -15.82324219 11.09838867 C-18.88058756 11.74012708 -21.93998651 12.37112505 -25 13 C-26.58466466 13.33058904 -28.1693034 13.66130234 -29.75390625 13.9921875 C-39.49975711 16 -39.49975711 16 -43 16 C-42.67 14.35 -42.34 12.7 -42 11 C-40.91992676 10.67201416 -39.83985352 10.34402832 -38.72705078 10.00610352 C-34.72715366 8.79094168 -30.72797179 7.57344066 -26.72900391 6.35522461 C-24.99677702 5.82789096 -23.26435576 5.30119538 -21.53173828 4.77514648 C-19.04408442 4.019737 -16.55713426 3.26204986 -14.0703125 2.50390625 C-13.29317902 2.26845596 -12.51604553 2.03300568 -11.71536255 1.79042053 C-2.95417396 -0.88625219 -2.95417396 -0.88625219 0 0 Z " fill="#886856" transform="translate(113,199)"/>
<path d="M0 0 C0.99 0.33 1.98 0.66 3 1 C3.125 3.875 3.125 3.875 3 7 C0.19640611 9.80359389 -3.07767159 10.27547293 -6.8125 11.25 C-8.43386836 11.68517607 -10.05495012 12.12142099 -11.67578125 12.55859375 C-12.53510254 12.7891748 -13.39442383 13.01975586 -14.27978516 13.25732422 C-19.96224764 14.80875582 -25.61411667 16.47073102 -31.26879883 18.12011719 C-32.11853271 18.36536133 -32.9682666 18.61060547 -33.84375 18.86328125 C-34.59849609 19.08282471 -35.35324219 19.30236816 -36.13085938 19.52856445 C-38 20 -38 20 -40 20 C-39.9921875 17.7109375 -39.9921875 17.7109375 -39 15 C-36.32590833 13.59160369 -33.95830579 12.59122086 -31.125 11.625 C-30.33158203 11.33608887 -29.53816406 11.04717773 -28.72070312 10.74951172 C-27.03070565 10.13577928 -25.33753537 9.53072647 -23.64160156 8.93359375 C-20.09376633 7.67971927 -16.56686028 6.37164205 -13.03857422 5.06396484 C-10.6013953 4.16250398 -8.16031675 3.27230329 -5.71875 2.3828125 C-2.24213419 1.16583159 -2.24213419 1.16583159 0 0 Z " fill="#886856" transform="translate(110,184)"/>
<path d="M0 0 C0.125 2.875 0.125 2.875 0 6 C-2.60242307 8.60242307 -4.93655902 9.11324626 -8.44140625 10.2421875 C-9.40396584 10.55665329 -9.40396584 10.55665329 -10.38597107 10.87747192 C-12.44299716 11.54906678 -14.50243415 12.21279298 -16.5625 12.875 C-19.25319284 13.7416843 -21.9422615 14.61303041 -24.62890625 15.4921875 C-25.27485748 15.70349304 -25.92080872 15.91479858 -26.58633423 16.13250732 C-30.98784215 17.59804935 -35.20313588 19.28816311 -39.37866211 21.30517578 C-41 22 -41 22 -43 22 C-43 20.35 -43 18.7 -43 17 C-37.9534144 14.74447235 -32.90204165 12.5000734 -27.84716797 10.26318359 C-25.87086767 9.38637192 -23.89603246 8.50625345 -21.92236328 7.62353516 C-18.78478876 6.22083772 -15.64280665 4.8284285 -12.5 3.4375 C-11.49122803 2.98391113 -10.48245605 2.53032227 -9.44311523 2.06298828 C-8.50282471 1.64903809 -7.56253418 1.23508789 -6.59375 0.80859375 C-5.75521484 0.43532959 -4.91667969 0.06206543 -4.05273438 -0.32250977 C-2 -1 -2 -1 0 0 Z " fill="#876855" transform="translate(113,171)"/>
<path d="M0 0 C0.66 0.33 1.32 0.66 2 1 C2 2.98 2 4.96 2 7 C-5.73634687 11.02475617 -13.40816259 14.6434915 -21.6015625 17.66796875 C-27.87579549 20.12717961 -33.92705791 23.08532378 -40 26 C-40.33 24.35 -40.66 22.7 -41 21 C-36.12555216 18.49101444 -31.25087058 15.98248378 -26.37597656 13.47436523 C-24.71933747 12.62194971 -23.06276112 11.76941224 -21.40625 10.91674805 C-19.01839617 9.68766343 -16.63031336 8.45902471 -14.2421875 7.23046875 C-13.50757294 6.85222458 -12.77295837 6.47398041 -12.01608276 6.08427429 C-10.6411253 5.3771406 -9.26488814 4.67248741 -7.887146 3.97079468 C-6.11667157 3.06001875 -4.36257161 2.11760934 -2.60986328 1.1730957 C-1.7486084 0.78597412 -0.88735352 0.39885254 0 0 Z " fill="#886856" transform="translate(111,156)"/>
<path d="M0 0 C0.66 0.33 1.32 0.66 2 1 C1.86254883 4.27905273 1.86254883 4.27905273 1 8 C-1.4934082 9.98461914 -1.4934082 9.98461914 -4.80078125 11.53515625 C-5.39239548 11.8217662 -5.9840097 12.10837616 -6.59355164 12.40367126 C-8.4890376 13.3151583 -10.39921558 14.18909134 -12.3125 15.0625 C-13.55650118 15.651849 -14.79935494 16.24362643 -16.04101562 16.83789062 C-18.49080105 18.00722473 -20.94694497 19.16125806 -23.40869141 20.30517578 C-27.88763748 22.41889731 -32.29497111 24.66072221 -36.69604492 26.93139648 C-39 28 -39 28 -41 28 C-40.859375 25.72265625 -40.859375 25.72265625 -40 23 C-37.578125 21.18359375 -37.578125 21.18359375 -34.25 19.4375 C-32.98503854 18.75639292 -31.72076101 18.07401467 -30.45703125 17.390625 C-29.75529785 17.01744141 -29.05356445 16.64425781 -28.33056641 16.25976562 C-23.81845185 13.82078478 -19.38523822 11.2413601 -14.9375 8.6875 C-9.62200625 5.65501555 -9.62200625 5.65501555 -7.14794922 4.24755859 C-5.40696495 3.23637087 -3.69956216 2.16751633 -2.00390625 1.08203125 C-1.34261719 0.72496094 -0.68132812 0.36789063 0 0 Z " fill="#876856" transform="translate(111,142)"/>
<path d="M0 0 C0.99 0.66 1.98 1.32 3 2 C2.67 3.32 2.34 4.64 2 6 C-1.11227195 6 -3.94152152 5.54372951 -7 5 C-8.49821059 8.37097383 -9 10.20442119 -9 14 C-6.69 14.66 -4.38 15.32 -2 16 C-2.33 16.66 -2.66 17.32 -3 18 C-6.0625 18.625 -6.0625 18.625 -9 19 C-9.08082094 20.95766281 -9.13910778 22.91626728 -9.1875 24.875 C-9.22230469 25.96554688 -9.25710938 27.05609375 -9.29296875 28.1796875 C-9.19628906 29.11039063 -9.09960938 30.04109375 -9 31 C-8.01 31.66 -7.02 32.32 -6 33 C-6 33.99 -6 34.98 -6 36 C-9.63 36 -13.26 36 -17 36 C-17 35.01 -17 34.02 -17 33 C-16.34 33 -15.68 33 -15 33 C-15 28.05 -15 23.1 -15 18 C-15.99 17.67 -16.98 17.34 -18 17 C-17.54625 16.29875 -17.0925 15.5975 -16.625 14.875 C-14.89783503 12.07497565 -14.89783503 12.07497565 -14.125 9 C-12.75274862 5.34066299 -10.95244169 3.52037705 -8 1 C-5.01413769 0.00471256 -3.10857 -0.23314275 0 0 Z " fill="#866755" transform="translate(396,156)"/>
<path d="M0 0 C0.66 0.33 1.32 0.66 2 1 C2.3125 3.25 2.3125 3.25 2 6 C-1.65400891 9.38512901 -5.83576792 11.70450352 -10.1875 14.0625 C-17.28985923 17.96929845 -24.20434595 22.13151401 -31.05932617 26.45727539 C-31.77709229 26.90449951 -32.4948584 27.35172363 -33.234375 27.8125 C-33.86569336 28.21082031 -34.49701172 28.60914063 -35.14746094 29.01953125 C-37.08461586 30.04478351 -38.86005873 30.55945869 -41 31 C-41.50390625 28.82421875 -41.50390625 28.82421875 -41 26 C-38.57460058 23.84818498 -35.76341155 22.38004674 -32.9375 20.8125 C-31.2809683 19.85037798 -29.62604433 18.88548306 -27.97265625 17.91796875 C-27.13750488 17.43376465 -26.30235352 16.94956055 -25.44189453 16.45068359 C-21.8303235 14.3051172 -18.35052707 11.98256288 -14.875 9.625 C-13.66028806 8.80839764 -12.44545023 7.99198251 -11.23046875 7.17578125 C-10.16441406 6.45777344 -9.09835938 5.73976562 -8 5 C-5.36172577 3.22942485 -2.76415828 1.57177628 0 0 Z " fill="#876856" transform="translate(111,128)"/>
<path d="M0 0 C-0.27236749 3.26840992 -0.60932029 4.64809562 -3.0859375 6.87890625 C-6.44351432 9.32282611 -9.89809858 11.51925276 -13.4375 13.6875 C-14.85851443 14.56699538 -16.27907821 15.44721923 -17.69921875 16.328125 C-18.41384277 16.77091797 -19.1284668 17.21371094 -19.86474609 17.66992188 C-23.17666935 19.73296302 -26.46626856 21.82995185 -29.75 23.9375 C-31.41289063 25.00291016 -31.41289063 25.00291016 -33.109375 26.08984375 C-35.93979024 27.89909265 -35.93979024 27.89909265 -38.203125 29.75390625 C-40 31 -40 31 -43 31 C-43 29.68 -43 28.36 -43 27 C-41.04824091 25.29259744 -39.21218174 23.91757505 -37.0625 22.5 C-35.77845748 21.62006646 -34.49461212 20.73984515 -33.2109375 19.859375 C-32.52741211 19.39724609 -31.84388672 18.93511719 -31.13964844 18.45898438 C-28.19431139 16.45061671 -25.29282298 14.38281344 -22.38891602 12.31518555 C-19.55343244 10.29918408 -16.70521042 8.30164756 -13.85595703 6.30517578 C-12.24036937 5.1690364 -10.6331045 4.0210801 -9.02734375 2.87109375 C-8.23457031 2.31550781 -7.44179687 1.75992188 -6.625 1.1875 C-5.97789063 0.72730469 -5.33078125 0.26710938 -4.6640625 -0.20703125 C-3 -1 -3 -1 0 0 Z " fill="#876956" transform="translate(113,116)"/>
<path d="M0 0 C2.77262674 1.70623184 3.71852362 2.95423707 4.5625 6.08984375 C5.16450367 9.85863759 5.28561175 12.30851892 3.8125 15.875 C-0.3131822 20.71200672 -0.3131822 20.71200672 -4.08203125 21.35546875 C-8.53863812 21.62892556 -10.3992726 21.47557586 -14 18.625 C-17.12218648 14.52713025 -17.59640531 12.19724625 -17 7 C-12.64919973 0.01944388 -8.17446589 -2.06009725 0 0 Z M-9.63671875 3.21875 C-12.09784207 6.43442975 -11.50896892 10.13741393 -11 14 C-10.01919106 16.61982146 -10.01919106 16.61982146 -8 18 C-5.45709375 18.58350505 -5.45709375 18.58350505 -3 18 C-0.51692555 14.27538833 -0.59171226 11.30873873 -1 7 C-1.50833238 4.55837433 -1.50833238 4.55837433 -3 3 C-6.4748003 1.65159868 -6.4748003 1.65159868 -9.63671875 3.21875 Z " fill="#866856" transform="translate(372,171)"/>
<path d="M0 0 C0.99 0.33 1.98 0.66 3 1 C2.73955218 4.46456169 2.28489778 5.73493382 -0.30078125 8.140625 C-1.29464844 8.83671875 -2.28851563 9.5328125 -3.3125 10.25 C-4.41830675 11.03858875 -5.52376646 11.82766433 -6.62890625 12.6171875 C-7.19367676 13.01389648 -7.75844727 13.41060547 -8.34033203 13.81933594 C-10.8571011 15.60972946 -13.29757399 17.49783441 -15.75 19.375 C-20.63935 23.03877023 -25.60607054 26.57844226 -30.625 30.0625 C-31.32463867 30.55218262 -32.02427734 31.04186523 -32.74511719 31.54638672 C-37.76293412 35 -37.76293412 35 -40 35 C-39.661211 32.07969486 -39.39207428 30.42040015 -37.35766602 28.23901367 C-36.66342529 27.72056885 -35.96918457 27.20212402 -35.25390625 26.66796875 C-34.49916016 26.09755859 -33.74441406 25.52714844 -32.96679688 24.93945312 C-32.17337891 24.36130859 -31.37996094 23.78316406 -30.5625 23.1875 C-29.77294922 22.59001953 -28.98339844 21.99253906 -28.16992188 21.37695312 C-22.30230357 17 -22.30230357 17 -20 17 C-20 16.34 -20 15.68 -20 15 C-18.59472656 13.71899414 -18.59472656 13.71899414 -16.640625 12.28515625 C-15.93679687 11.76373047 -15.23296875 11.24230469 -14.5078125 10.70507812 C-13.39019531 9.89200195 -13.39019531 9.89200195 -12.25 9.0625 C-11.52039063 8.52431641 -10.79078125 7.98613281 -10.0390625 7.43164062 C-8.66914321 6.42163649 -7.29727093 5.41427221 -5.92285156 4.41040039 C-4.55876127 3.40984813 -3.23542454 2.35265339 -1.94433594 1.25952148 C-1.30270508 0.84387939 -0.66107422 0.4282373 0 0 Z " fill="#876856" transform="translate(110,101)"/>
<path d="M0 0 C2.91817239 1.84341426 5.43102312 3.86204624 7 7 C7.58141192 11.90047189 7.56677128 14.93124029 4.625 19 C1.8988153 21.82331717 -0.16016326 22.54000879 -4.0625 22.75 C-7.72526068 22.47418971 -8.94530594 22.03795098 -12.0625 19.875 C-14.25287468 16.6247666 -15 14.91718166 -15 11 C-13.74073438 6.70368199 -12.58189933 4.50431275 -9.1875 1.5625 C-5.61559025 -0.18843615 -3.9072584 -0.73261095 0 0 Z M-8 4 C-9.26266317 8.92845947 -9.5498891 13.46686382 -7 18 C-6.67 18.33 -6.34 18.66 -6 19 C-3.66055264 18.71269945 -1.3260857 18.38063221 1 18 C2.52024878 13.13520389 1.47733783 9.74303197 0 5 C-0.66 4.34 -1.32 3.68 -2 3 C-5.7763932 2.7018576 -5.7763932 2.7018576 -8 4 Z " fill="#876957" transform="translate(452,170)"/>
<path d="M0 0 C2.62411168 1.41843875 3.71682312 2.28116637 4.8125 5.0625 C5 7 5 7 4 9 C0.04 9 -3.92 9 -8 9 C-7.34 11.64 -6.68 14.28 -6 17 C-3.36 17 -0.72 17 2 17 C2 16.34 2 15.68 2 15 C2.99 15.33 3.98 15.66 5 16 C3.98968348 18.66356173 2.99569126 20.00369321 0.8125 21.875 C-3.11049583 23.44419833 -5.15664646 22.5658107 -9 21 C-11.16417942 19.32582347 -11.90357551 18.36006614 -12.6171875 15.6953125 C-13.31171494 8.77108434 -13.31171494 8.77108434 -11.8125 5.0625 C-8.09634401 0.83377077 -5.80299999 -0.725375 0 0 Z M-7 4 C-7 4.66 -7 5.32 -7 6 C-5.02 6 -3.04 6 -1 6 C-1.33 5.01 -1.66 4.02 -2 3 C-4.9254644 2.7763932 -4.9254644 2.7763932 -7 4 Z " fill="#876956" transform="translate(548,170)"/>
<path d="M0 0 C2.375 1.6875 2.375 1.6875 4 4 C4 5.65 4 7.3 4 9 C0.04 9 -3.92 9 -8 9 C-6.86983745 12.52692672 -6.86983745 12.52692672 -5 16 C-2.4542148 16.93138483 -0.67137312 17 2 17 C2 16.34 2 15.68 2 15 C2.99 15.33 3.98 15.66 5 16 C3.84826645 18.46800047 2.95216435 20.04783565 1 22 C-1.93411795 22.95160582 -3.62468004 23.09829808 -6.625 22.3125 C-9.45564002 20.74819893 -10.51753637 19.89080408 -12 17 C-13.04676884 12.70019569 -13.52367176 9.26783689 -11.8125 5.125 C-8.18004409 0.86625858 -5.77978362 -0.84288511 0 0 Z M-5 3 C-5.99 4.485 -5.99 4.485 -7 6 C-4.69 6 -2.38 6 0 6 C-0.66 5.01 -1.32 4.02 -2 3 C-2.99 3 -3.98 3 -5 3 Z " fill="#876956" transform="translate(601,170)"/>
<path d="M0 0 C0.33 0.66 0.66 1.32 1 2 C4.465 1.505 4.465 1.505 8 1 C8.66 2.32 9.32 3.64 10 5 C7.35122304 6.41898766 4.91985181 7.31911019 2 8 C2.11351517 9.81325551 2.24112961 11.62563357 2.375 13.4375 C2.44460938 14.44683594 2.51421875 15.45617187 2.5859375 16.49609375 C2.72257813 17.32238281 2.85921875 18.14867187 3 19 C3.66 19.33 4.32 19.66 5 20 C4.67 20.99 4.34 21.98 4 23 C0.7 23 -2.6 23 -6 23 C-6 22.01 -6 21.02 -6 20 C-5.34 20 -4.68 20 -4 20 C-4.14100857 17.72886197 -4.28796755 15.45809275 -4.4375 13.1875 C-4.51871094 11.92292969 -4.59992187 10.65835938 -4.68359375 9.35546875 C-4.87184547 6.00818107 -4.87184547 6.00818107 -6 3 C-4.02 2.01 -2.04 1.02 0 0 Z " fill="#876A59" transform="translate(560,169)"/>
<path d="M0 0 C0.99 0.66 1.98 1.32 3 2 C2.67 3.32 2.34 4.64 2 6 C1.36191406 5.91621094 0.72382812 5.83242187 0.06640625 5.74609375 C-0.75988281 5.64425781 -1.58617187 5.54242188 -2.4375 5.4375 C-3.26121094 5.33308594 -4.08492187 5.22867188 -4.93359375 5.12109375 C-5.61550781 5.08113281 -6.29742188 5.04117188 -7 5 C-8.44244751 6.2224093 -8.44244751 6.2224093 -8.25 9.875 C-8.19606263 12.3785927 -8.10126657 13.79113769 -7 16.0625 C-3.63210163 17.64120236 -0.59935948 16.64906482 3 16 C2.42655063 18.86724686 2.1385485 19.8614515 0 22 C-2.87721435 22.9331506 -4.61097864 23.09488326 -7.5625 22.375 C-10.70492214 20.60235161 -12.16572888 19.1250545 -14 16 C-14.62391938 11.08663491 -14.53263057 9.0272161 -12.25 4.625 C-8.48335986 0.23058651 -5.77092207 -0.4911423 0 0 Z " fill="#866855" transform="translate(584,170)"/>
<path d="M0 0 C2 0.25 2 0.25 4 1 C4.33 1.99 4.66 2.98 5 4 C4.01 5.485 4.01 5.485 3 7 C1.35 6.67 -0.3 6.34 -2 6 C-1.125 1.125 -1.125 1.125 0 0 Z " fill="#595959" transform="translate(437,93)"/>
</svg>
