<?xml version="1.0" standalone="no"?>
<!DOCTYPE svg PUBLIC "-//W3C//DTD SVG 20010904//EN"
 "http://www.w3.org/TR/2001/REC-SVG-20010904/DTD/svg10.dtd">
<svg version="1.0" xmlns="http://www.w3.org/2000/svg"
 width="512.000000pt" height="512.000000pt" viewBox="0 0 512.000000 512.000000"
 preserveAspectRatio="xMidYMid meet">

<g transform="translate(0.000000,512.000000) scale(0.100000,-0.100000)"
fill="#000000" stroke="none">
<path d="M182 5054 c-56 -28 -90 -63 -125 -128 l-22 -41 0 -915 c0 -753 2
-922 14 -954 17 -49 82 -121 136 -149 l40 -22 930 0 930 0 41 22 c22 12 57 40
78 63 76 85 71 9 71 1035 l0 920 -22 41 c-35 65 -69 100 -125 128 l-52 26
-921 0 -921 0 -52 -26z"/>
<path d="M3032 5067 c-51 -16 -126 -89 -151 -147 l-21 -50 2 -922 3 -923 27
-47 c16 -25 45 -61 65 -78 76 -62 48 -61 1044 -58 l904 3 49 25 c27 14 64 42
82 64 67 78 64 34 64 1035 l0 906 -24 50 c-28 60 -99 127 -154 143 -53 16
-1841 15 -1890 -1z"/>
<path d="M230 2251 c-76 -24 -157 -98 -181 -167 -12 -32 -14 -201 -14 -954 l0
-915 22 -41 c36 -67 70 -101 131 -131 l57 -28 910 0 910 0 57 28 c61 30 95 64
131 131 l22 41 0 920 c0 1026 5 950 -71 1035 -21 23 -56 51 -78 63 l-41 22
-915 2 c-503 1 -926 -2 -940 -6z"/>
<path d="M3040 2245 c-58 -18 -113 -64 -148 -123 l-27 -47 -3 -923 -2 -922 21
-50 c28 -65 102 -133 166 -151 71 -21 1795 -21 1866 0 62 18 134 82 163 146
l24 50 0 906 c0 1027 5 965 -80 1050 -83 83 -31 79 -1044 78 -733 0 -899 -3
-936 -14z"/>
</g>
</svg>
