<?xml version="1.0" standalone="no"?>
<!DOCTYPE svg PUBLIC "-//W3C//DTD SVG 20010904//EN"
 "http://www.w3.org/TR/2001/REC-SVG-20010904/DTD/svg10.dtd">
<svg version="1.0" xmlns="http://www.w3.org/2000/svg"
 width="512.000000pt" height="512.000000pt" viewBox="0 0 512.000000 512.000000"
 preserveAspectRatio="xMidYMid meet">

<g transform="translate(0.000000,512.000000) scale(0.100000,-0.100000)"
fill="#000000" stroke="none">
<path d="M0 4065 l0 -605 600 0 600 0 0 605 0 605 -600 0 -600 0 0 -605z"/>
<path d="M1510 4065 l0 -605 1805 0 1805 0 0 605 0 605 -1805 0 -1805 0 0
-605z"/>
<path d="M0 2560 l0 -600 600 0 600 0 0 600 0 600 -600 0 -600 0 0 -600z"/>
<path d="M1510 2560 l0 -600 1805 0 1805 0 0 600 0 600 -1805 0 -1805 0 0
-600z"/>
<path d="M0 1055 l0 -605 600 0 600 0 0 605 0 605 -600 0 -600 0 0 -605z"/>
<path d="M1510 1055 l0 -605 1805 0 1805 0 0 605 0 605 -1805 0 -1805 0 0
-605z"/>
</g>
</svg>
